<svg width="91" height="26" viewBox="0 0 91 26" fill="none" xmlns="http://www.w3.org/2000/svg">
<path fill-rule="evenodd" clip-rule="evenodd" d="M88.1519 0.22583H51.5412C50.4022 0.354575 49.7757 1.05658 49.665 2.33815V23.5445C49.7746 24.8241 50.3997 25.5234 51.5311 25.6573H88.1609C89.2927 25.5234 89.9174 24.8236 90.0272 23.5445V2.33815C89.9168 1.05658 89.2902 0.354575 88.1519 0.22583Z" fill="#FF9000"/>
<path fill-rule="evenodd" clip-rule="evenodd" d="M62.4086 9.99913C62.1346 9.60815 61.7276 9.28629 61.1865 9.03467C60.6973 8.80722 60.1546 8.68344 59.5581 8.66153C59.5478 8.66086 59.5384 8.66018 59.5283 8.65973C58.2963 8.59355 56.7205 8.95584 55.9851 9.66891V4.67224H53.062V20.0444H55.9851V14.4666C55.9851 13.5295 56.0738 12.8218 56.2506 12.3432C56.4277 11.8635 56.7064 11.5054 57.088 11.2678C57.4694 11.0304 57.9026 10.9112 58.3884 10.9112C58.8112 10.9112 59.1637 11.004 59.4442 11.1892C59.725 11.3747 59.9211 11.6247 60.0318 11.9391C60.1425 12.254 60.1983 12.9946 60.1983 14.1619V20.0444H63.1212V13.5118C63.1212 12.5124 63.0708 11.7747 62.9702 11.2997C62.8698 10.824 62.6822 10.3906 62.4086 9.99913Z" fill="black"/>
<path fill-rule="evenodd" clip-rule="evenodd" d="M71.9469 13.6063C71.9469 15.2003 71.8743 16.2018 71.7286 16.6108C71.5828 17.0194 71.3123 17.3623 70.917 17.6376C70.5222 17.9145 70.0745 18.0523 69.5752 18.0523C69.1383 18.0523 68.7773 17.9495 68.4931 17.7431C68.209 17.5369 68.0125 17.2572 67.9054 16.904C67.7978 16.551 67.7442 15.5919 67.7442 14.0255V8.90869H64.8211V15.9553C64.8211 17.0038 64.9529 17.8253 65.2159 18.4193C65.4797 19.0138 65.9061 19.4751 66.4959 19.8037C67.0855 20.1323 67.751 20.2965 68.4931 20.2965C68.6041 20.2965 68.7141 20.2925 68.8232 20.2843C68.8266 20.2843 68.829 20.2843 68.8319 20.2839C70.6923 20.2297 71.6616 19.3788 72.1548 18.818V20.0445H74.8698V8.90869H71.9469V13.6063Z" fill="black"/>
<path fill-rule="evenodd" clip-rule="evenodd" d="M83.7693 17.1351C83.3153 17.691 82.7656 17.9681 82.1205 17.9681C81.2811 17.9681 80.6084 17.5767 80.1019 16.7938C79.7416 16.2418 79.5612 15.3889 79.5612 14.2354C79.5612 13.1169 79.7936 12.2835 80.2583 11.7348C80.7229 11.1862 81.3055 10.9118 82.006 10.9118C82.7203 10.9118 83.3065 11.1932 83.7643 11.7556C84.2219 12.3182 84.4509 13.2362 84.4509 14.5076C84.4509 15.7038 84.2239 16.5788 83.7693 17.1351ZM86.1255 10.13C85.5039 9.43797 84.6695 8.99391 83.7604 8.78972C83.5 8.71993 83.2026 8.67024 82.8719 8.65578C81.6697 8.54556 80.1255 9.03027 79.4076 9.63764L79.5817 4.67236H76.6583V20.045H79.374V19.1982C80.0001 19.7064 81.0048 20.2964 82.536 20.2964C82.596 20.2964 82.653 20.2959 82.7081 20.2946C82.748 20.2959 82.7876 20.2964 82.8275 20.2964C84.1106 20.2964 85.2014 19.7823 86.0993 18.7551C86.9974 17.7269 87.4461 16.263 87.4461 14.3617C87.4461 12.5227 87.0057 11.1126 86.1255 10.13Z" fill="black"/>
<path fill-rule="evenodd" clip-rule="evenodd" d="M8.58402 9.85605C8.33977 10.2165 8.00253 10.4813 7.57207 10.65C7.14161 10.8189 6.28763 10.9036 5.01149 10.9036H3.23878V6.31534H4.80376C5.97078 6.31534 6.74767 6.35238 7.13444 6.42556C7.65968 6.52155 8.0935 6.7603 8.43657 7.14247C8.77919 7.52509 8.95084 8.01003 8.95084 8.59842C8.95084 9.07635 8.82849 9.49557 8.58402 9.85605ZM9.04931 3.82264C8.45124 3.6607 7.16725 3.57983 5.19757 3.57983H0V19.7493H3.23888V13.6502H5.35062C6.81701 13.6502 7.93675 13.5727 8.70983 13.4185C9.27944 13.2933 9.83897 13.0376 10.39 12.6519C10.9403 12.2661 11.3943 11.7346 11.7522 11.0577C12.1096 10.3819 12.2884 9.54729 12.2884 8.55414C12.2884 7.26759 11.9781 6.21798 11.3582 5.40531C10.738 4.59308 9.96827 4.06523 9.04931 3.82264Z" fill="white"/>
<path fill-rule="evenodd" clip-rule="evenodd" d="M20.9624 16.5622C20.4185 17.1797 19.7456 17.4885 18.9434 17.4885C18.1407 17.4885 17.466 17.1797 16.9188 16.5622C16.3718 15.9442 16.0984 15.0543 16.0984 13.8929C16.0984 12.731 16.3718 11.8413 16.9188 11.2235C17.466 10.606 18.1407 10.2973 18.9434 10.2973C19.7456 10.2973 20.4185 10.606 20.9624 11.2235C21.5058 11.8413 21.7773 12.724 21.7773 13.8709C21.7773 15.0477 21.5058 15.9442 20.9624 16.5622ZM18.9322 7.77161C17.7943 7.77161 16.764 8.02503 15.8415 8.53278C14.918 9.03986 14.2054 9.77506 13.7019 10.7384C13.1986 11.7017 12.9468 12.698 12.9468 13.7275C12.9468 15.073 13.1986 16.2148 13.7019 17.1519C14.2054 18.0897 14.94 18.8012 15.9069 19.2859C16.8734 19.7711 17.8893 20.0146 18.9544 20.0146C20.6758 20.0146 22.1039 19.4314 23.2382 18.2659C24.3725 17.1007 24.9398 15.6318 24.9398 13.8592C24.9398 12.1024 24.3783 10.648 23.2548 9.4977C22.131 8.34712 20.6904 7.77161 18.9322 7.77161Z" fill="white"/>
<path fill-rule="evenodd" clip-rule="evenodd" d="M31.473 7.81622C30.5632 7.93345 29.6938 8.6734 29.3133 9.14433V8.03599H26.4572V19.7493H29.532V16.1323C29.532 14.1392 29.6174 12.8305 29.789 12.2053C29.9604 11.5801 30.1957 11.1487 30.4949 10.9093C30.794 10.6705 31.1588 10.5508 31.5895 10.5508C32.0341 10.5508 32.5154 10.7195 33.0335 11.0579L33.9858 8.35583C33.3365 7.96598 32.6613 7.77173 31.961 7.77173C31.7921 7.77173 31.6296 7.78731 31.473 7.81622Z" fill="white"/>
<path fill-rule="evenodd" clip-rule="evenodd" d="M46.1237 10.3855C46.0105 9.90034 45.8102 9.46622 45.5224 9.08383C45.2336 8.70143 44.8087 8.38725 44.2472 8.14105C43.6852 7.89463 43.0654 7.77176 42.3866 7.77176C41.1564 7.70128 39.1603 8.17471 38.5571 9.13736V8.03602H35.7012V19.7494H38.776V14.4444C38.776 13.1357 38.8544 12.2383 39.0111 11.7536C39.1677 11.2678 39.4581 10.8784 39.8812 10.5838C40.3043 10.2897 40.782 10.1427 41.3144 10.1427C41.7303 10.1427 42.0857 10.2461 42.3813 10.4515C42.6771 10.6572 42.8906 10.9463 43.0217 11.3174C43.153 11.6892 43.2187 12.5069 43.2187 13.7715V19.7494H46.2931V12.4701C46.2931 11.5654 46.2366 10.8707 46.1237 10.3855Z" fill="white"/>
</svg>
